<svg width="658" height="466" viewBox="0 0 658 466" fill="none" xmlns="http://www.w3.org/2000/svg">
<path d="M10.9667 311.634H180.818L160.903 453.506C160.571 455.867 161.017 458.271 162.174 460.356C163.331 462.44 165.136 464.091 167.315 465.058C169.494 466.024 171.929 466.255 174.251 465.714C176.572 465.173 178.655 463.89 180.182 462.06L308.986 307.685C310.637 305.715 311.542 303.226 311.541 300.655V10.9672C311.541 8.05854 310.386 5.26898 308.329 3.21223C306.272 1.15547 303.483 0 300.574 0H10.9667C8.05813 0 5.26871 1.15547 3.21206 3.21223C1.15541 5.26898 0 8.05854 0 10.9672V300.666C0 303.575 1.15541 306.365 3.21206 308.421C5.26871 310.478 8.05813 311.634 10.9667 311.634ZM21.9333 21.9344H289.608V296.696L187.969 418.498L204.287 302.191C204.507 300.637 204.39 299.053 203.946 297.548C203.501 296.042 202.738 294.65 201.709 293.464C200.679 292.279 199.408 291.329 197.979 290.677C196.551 290.026 195 289.688 193.43 289.688H21.9333V21.9344ZM647.033 0H357.426C354.517 0 351.728 1.15547 349.671 3.21223C347.614 5.26898 346.459 8.05854 346.459 10.9672V300.666C346.459 303.575 347.614 306.365 349.671 308.421C351.728 310.478 354.517 311.634 357.426 311.634H527.277L507.373 453.506C507.045 455.864 507.493 458.265 508.65 460.346C509.807 462.427 511.609 464.075 513.785 465.041C515.961 466.007 518.392 466.239 520.712 465.701C523.031 465.163 525.112 463.885 526.641 462.06L655.456 307.685C657.101 305.717 658.002 303.232 658 300.666V10.9672C658 8.05854 656.845 5.26898 654.788 3.21223C652.731 1.15547 649.942 0 647.033 0ZM636.067 296.696L534.428 418.498L550.746 302.202C550.966 300.648 550.849 299.064 550.404 297.559C549.96 296.053 549.197 294.661 548.168 293.475C547.138 292.29 545.867 291.34 544.438 290.688C543.01 290.037 541.459 289.699 539.889 289.699H368.392V21.9454H636.067V296.696Z" fill="#F5F5F5"/>
</svg>
